<svg width="28" height="28" viewBox="0 0 28 28" fill="none" xmlns="http://www.w3.org/2000/svg">
<path d="M8.90809 22.3521H2.7967C1.89664 22.3521 1.16699 21.6224 1.16699 20.7224V7.27729C1.16699 6.37723 1.89664 5.64758 2.7967 5.64758H19.7974C20.6974 5.64758 21.4271 6.37723 21.4271 7.27729V9.51813" stroke="white" stroke-width="1.26301" stroke-linecap="round"/>
<path d="M24.5371 1.66895C24.1566 2.45054 23.5256 3.08209 22.7441 3.46289C23.5253 3.84349 24.1565 4.47474 24.5371 5.25586C24.9179 4.47444 25.5495 3.8434 26.3311 3.46289C25.5492 3.08218 24.9178 2.45084 24.5371 1.66895Z" stroke="white" stroke-width="1.26301" stroke-linecap="round"/>
<path d="M7.27832 8.09204V19.9074" stroke="white" stroke-width="1.26301" stroke-linecap="round"/>
<path d="M16.6484 11.7595L3.61079 11.7595" stroke="white" stroke-width="1.26301" stroke-linecap="round"/>
<path d="M14.1494 8.09204V13.5528" stroke="white" stroke-width="1.26301" stroke-linecap="round"/>
<path d="M3.61028 16.6483L9.72168 16.6483" stroke="white" stroke-width="1.26301" stroke-linecap="round"/>
<path d="M23.9279 20.1119C24.1529 20.1119 24.3367 20.2945 24.3222 20.519C24.2507 21.6248 23.8893 22.695 23.271 23.6203C22.5771 24.6589 21.5908 25.4683 20.4369 25.9463C19.2829 26.4242 18.0132 26.5493 16.7882 26.3056C15.5632 26.062 14.4379 25.4605 13.5547 24.5773C12.6715 23.6941 12.0701 22.5689 11.8264 21.3439C11.5828 20.1189 11.7078 18.8491 12.1858 17.6952C12.6638 16.5412 13.4732 15.555 14.5117 14.861C15.437 14.2428 16.5072 13.8813 17.613 13.8099C17.8376 13.7954 18.0202 13.9792 18.0202 14.2042L18.0202 19.7044C18.0202 19.9295 18.2026 20.1119 18.4276 20.1119H23.9279Z" fill="#B6C3FF"/>
<path d="M25.5569 18.1894C25.7818 18.1939 25.9693 18.0151 25.9593 17.7903C25.9283 17.0896 25.7808 16.398 25.5219 15.7442C25.2128 14.9639 24.7514 14.253 24.1645 13.6531C23.5776 13.0532 22.877 12.5763 22.1036 12.2502C21.4556 11.9771 20.7674 11.8144 20.0676 11.7681C19.8431 11.7532 19.6602 11.9367 19.6598 12.1617L19.651 17.6695C19.6507 17.8915 19.8282 18.073 20.0502 18.0775L25.5569 18.1894Z" fill="#FFC1D3"/>
</svg>
